<?xml version="1.0" standalone="no"?>
<!DOCTYPE svg PUBLIC "-//W3C//DTD SVG 20010904//EN"
 "http://www.w3.org/TR/2001/REC-SVG-20010904/DTD/svg10.dtd">
<svg version="1.0" xmlns="http://www.w3.org/2000/svg"
 width="76.000000pt" height="76.000000pt" viewBox="0 0 76.000000 76.000000"
 preserveAspectRatio="xMidYMid meet">
<metadata>
Created by potrace 1.14, written by Peter Selinger 2001-2017
</metadata>
<g transform="translate(0.000000,76.000000) scale(0.100000,-0.100000)"
fill="#000000" stroke="none">
<path d="M130 698 c-11 -4 -20 -11 -20 -16 0 -20 28 -29 87 -27 l62 1 -37 -32
c-35 -30 -40 -32 -116 -30 -82 2 -111 -9 -101 -35 5 -13 21 -16 76 -15 38 1
69 1 69 0 0 0 -9 -26 -19 -57 -28 -80 -23 -176 12 -245 l27 -53 -23 1 c-56 5
-68 1 -65 -22 3 -21 9 -23 62 -25 54 -1 106 -17 106 -33 0 -3 -50 -6 -111 -5
-78 1 -115 -2 -127 -12 -16 -12 -16 -14 -1 -26 26 -20 469 -14 528 7 51 19
108 59 143 101 141 170 67 434 -143 511 -33 12 -86 17 -216 18 -95 1 -182 -2
-193 -6z m415 -68 c168 -77 213 -303 86 -438 -49 -52 -123 -84 -196 -85 -219
-2 -350 247 -224 429 74 108 216 148 334 94z"/>
<path d="M360 567 c-82 -43 -119 -95 -125 -175 -10 -145 139 -252 273 -197 74
32 123 103 123 183 1 57 -10 88 -47 131 -52 62 -162 90 -224 58z m50 -70 c0
-43 -44 -73 -85 -57 -26 10 -26 10 -8 34 16 22 65 54 86 55 4 1 7 -14 7 -32z
m83 22 c32 -16 67 -51 67 -65 0 -6 -12 -14 -27 -17 -39 -7 -72 20 -73 61 0 36
2 37 33 21z m-35 -111 c30 -30 -11 -85 -44 -57 -25 21 -11 69 21 69 6 0 16 -5
23 -12z m-127 -18 c19 0 30 -52 18 -82 -14 -34 -24 -35 -43 -5 -32 49 -31 105
1 93 8 -3 19 -6 24 -6z m253 2 c7 -12 -11 -74 -28 -97 -14 -19 -15 -19 -34 5
-17 21 -18 28 -7 54 15 35 57 58 69 38z m-102 -122 c23 -29 11 -40 -47 -40
-58 0 -72 12 -50 41 24 31 71 31 97 -1z"/>
</g>
</svg>
